<?xml version="1.0" encoding="utf-8" ?>
<svg xmlns="http://www.w3.org/2000/svg" xmlns:xlink="http://www.w3.org/1999/xlink" width="512" height="512">
	<path d="M136.626 38.4024L295.839 38.3246C299.821 38.4095 303.723 38.9341 307.691 39.2759L318.499 40.3343C328.442 41.3446 338.705 43.1427 348.446 45.4112L384.999 55.8171C393.111 58.3796 401.088 61.1877 409.369 63.1959L419.75 65.2493C425.389 66.1353 430.964 66.2617 436.664 66.2503L436.503 66.389C436.058 66.7253 435.633 66.9429 435.33 67.4377L434.695 68.4403C428.999 75.5592 417.435 76.7489 408.902 76.7378C420.891 82.5839 430.032 91.9287 440.948 99.3123C447.488 103.736 463.105 111.358 471.297 111.839L471.687 111.86C467.235 117.282 461.067 117.437 454.548 117.78L471.815 143.473C490.7 174.472 499.57 214.149 494.937 250.014C492.017 272.619 485.804 290.633 475.114 310.738L469.759 320.528C467.83 323.71 465.561 326.949 464.09 330.367L463.418 331.856C468.732 332.403 480.529 330.66 484.534 332.707L485.707 333.368C489.617 336.204 488.751 339.164 488.758 343.464L488.763 369.022C488.774 374.642 489.309 380.658 481.28 381.414L457.803 381.552C457.408 383.249 457.437 385.019 457.294 386.751L454.75 408.875C453.682 419.299 452.986 429.237 448.767 439C437.549 464.954 410.527 470.664 385.407 470.741L365.665 470.782C356.943 470.795 347.966 471.28 339.301 470.248C312.969 467.76 298.009 451.232 285.604 429.332L275.186 409.327C272.703 404.104 270.761 398.498 267.827 393.513C263.574 386.287 251.636 383.741 246.527 389.994C242.439 394.997 240.311 402.05 237.473 407.825C226.339 430.487 214.53 456.105 189.407 465.875C175.835 471.153 164.817 470.784 150.575 470.781C134.278 470.778 117.853 471.538 101.751 468.663C82.6767 465.257 64.3295 449.463 59.9216 430.358C58.2999 423.329 57.9483 416.131 57.2129 408.982L54.5126 381.619L37.4037 381.594C28.0814 381.588 22.9917 382.471 23.2265 370.49L23.2517 347.792C23.2308 344.841 22.6899 340.853 23.4177 338.022L23.493 337.75C25.3807 330.522 36.2501 332.321 41.7983 332.401L31.9903 290.75C26.4194 271.629 18.7333 252.843 16.8792 232.875C14.0211 202.093 22.4475 168.587 42.5532 144.669C52.6404 132.669 76.3355 119.457 92.5149 118.088L91.6773 112.3C85.7939 77.4923 96.2186 41.1136 136.626 38.4024ZM131.369 173.717C129.272 178.601 127.307 183.43 124.784 188.125C112.916 210.204 95.9462 228.999 86.4134 252.435C79.9128 268.416 76.7216 285.429 75.8651 302.625L76.0843 333.212C81.3376 329.311 109.408 327.54 116.216 327.513L155.037 329.148C174.116 330.471 217.362 333.663 231.728 346.416C233.63 348.105 232.823 348.572 235.475 348.454L243.973 347.72C249.929 347.302 266.907 346.85 272.565 347.924C279.241 349.191 279.498 345.864 285.104 342.807C293.049 338.475 306.503 334.508 315.867 333.639L370.924 328.165C373.179 327.979 375.42 327.677 377.687 327.523L396.939 327.509C412.304 327.515 425.432 329.094 440.387 333.482C438.568 322.241 437.566 311.102 436.839 299.75C436.418 293.18 436.445 286.546 435.628 280.008C430.703 240.582 404.37 208.706 367.784 194.62C360.993 196.796 353.731 198.087 346.774 199.688C325.847 204.504 304.306 208.115 282.836 209.313L250.729 209.472L238.375 208.5C210.972 206.173 151.592 195.175 131.369 173.717ZM385.828 342.909C364.867 343.539 343.947 345.176 323.367 349.316C300.671 353.882 285.565 359.345 288.904 385.875C289.851 393.405 292.166 400.647 294.821 407.731C304.496 433.547 316.071 452.16 345.054 454.991L375.433 454.983C383.567 454.967 392.05 455.473 400.118 454.431C414.916 452.518 429.763 444.311 434.775 429.582C436.769 423.723 437.153 417.806 437.914 411.734L441.819 377.5C443.841 356.393 431.953 346.021 411.607 343.492L385.828 342.909ZM107.604 343.125C97.3048 343.488 84.9522 345.494 77.5528 353.364C66.5099 365.11 70.6626 380.192 72.1933 394.5L74.2498 415.625C76.4004 436.995 87.1948 450.513 109.628 454.215C118.134 455.618 127.431 454.995 136.048 455.009L154.768 455.026C164.249 455.028 172.842 455.053 181.81 451.367C200.274 443.771 208.591 428.63 215.99 410.795C221.36 397.849 226.903 380.039 221.215 366.424C215.697 353.216 196.685 350.406 184.273 348.229C162.979 344.493 141.35 342.984 119.745 342.999L107.604 343.125Z"/>
</svg>
